<svg version="1.2" xmlns="http://www.w3.org/2000/svg" viewBox="0 0 971 315" width="154" height="50">
	<style>
		.s0 { fill: #ff5a5f } 
	</style>
	<path class="s0" d="m506.5 85.35c0 10.36-8.35 18.7-18.71 18.7-10.36 0-18.7-8.34-18.7-18.7 0-10.36 8.06-18.71 18.7-18.71 10.65 0.29 18.71 8.63 18.71 18.71zm-77.12 37.69v4.61c0 0-8.92-11.51-27.92-11.51-31.36 0-55.82 23.88-55.82 56.98 0 32.8 24.17 56.97 55.82 56.97 19.28 0 27.92-11.8 27.92-11.8v4.9c0 2.3 1.72 4.03 4.03 4.03h23.3v-108.21h-23.3c-2.31 0-4.03 2.02-4.03 4.03zm0 69.36c-4.32 6.33-12.95 11.79-23.31 11.79-18.42 0-32.52-11.51-32.52-31.07 0-19.57 14.1-31.08 32.52-31.08 10.07 0 19.28 5.75 23.31 11.79zm44.6-73.38h27.63v108.2h-27.63zm412.66-2.87c-18.99 0-27.91 11.51-27.91 11.51v-60.72h-27.63v160.29h23.31c2.3 0 4.03-2.02 4.03-4.03v-4.89c0 0 8.92 11.79 27.91 11.79 31.37 0 55.83-24.17 55.83-56.97 0-32.81-24.46-56.98-55.54-56.98zm-4.6 87.77c-10.65 0-18.99-5.47-23.31-11.8v-38.56c4.32-5.76 13.52-11.8 23.31-11.8 18.42 0 32.52 11.51 32.52 31.08 0 19.57-14.1 31.08-32.52 31.08zm-65.33-40.87v64.46h-27.62v-61.29c0-17.84-5.76-25.04-21.3-25.04-8.34 0-16.97 4.32-22.44 10.65v75.4h-27.63v-108.21h21.87c2.3 0 4.03 2.02 4.03 4.03v4.61c8.06-8.35 18.71-11.51 29.35-11.51q18.13 0 30.22 10.36c9.78 8.05 13.52 18.41 13.52 36.54zm-166.04-46.9c-18.99 0-27.91 11.51-27.91 11.51v-60.72h-27.63v160.29h23.31c2.3 0 4.03-2.02 4.03-4.03v-4.89c0 0 8.92 11.79 27.91 11.79 31.37 0 55.83-24.17 55.83-56.97 0.29-32.81-24.17-56.98-55.54-56.98zm-4.6 87.77c-10.65 0-19-5.47-23.31-11.8v-38.56c4.31-5.76 13.52-11.8 23.31-11.8 18.41 0 32.52 11.51 32.52 31.08 0 19.57-14.11 31.08-32.52 31.08zm-74.82-87.77c8.34 0 12.66 1.44 12.66 1.44v25.61c0 0-23.02-7.77-37.41 8.63v75.68h-27.63v-108.49h23.31c2.3 0 4.03 2.02 4.03 4.03v4.61c5.18-6.05 16.4-11.51 25.04-11.51zm-286.91 101.29c-1.44-3.45-2.88-7.19-4.32-10.36-2.3-5.18-4.6-10.07-6.61-14.67l-0.29-0.29c-19.86-43.17-41.15-86.91-63.6-130.07l-0.86-1.73c-2.31-4.32-4.61-8.92-6.91-13.53-2.88-5.18-5.75-10.64-10.36-15.82-9.21-11.51-22.45-17.84-36.55-17.84-14.38 0-27.33 6.33-36.83 17.26-4.32 5.18-7.48 10.65-10.36 15.83-2.3 4.6-4.6 9.21-6.91 13.52l-0.86 1.73c-22.16 43.17-43.74 86.91-63.6 130.07l-0.28 0.58c-2.02 4.6-4.32 9.49-6.62 14.67q-2.16 4.75-4.32 10.36c-3.74 10.65-4.89 20.72-3.45 31.08 3.16 21.59 17.55 39.72 37.41 47.77 7.48 3.17 15.25 4.61 23.31 4.61 2.3 0 5.18-0.29 7.48-0.58 9.49-1.15 19.28-4.31 28.78-9.78 11.79-6.62 23.02-16.12 35.68-29.93 12.66 13.81 24.17 23.31 35.68 29.93 9.5 5.47 19.28 8.63 28.78 9.78 2.3 0.29 5.18 0.58 7.48 0.58 8.06 0 16.12-1.44 23.31-4.61 20.14-8.05 34.24-26.47 37.41-47.77 2.3-10.07 1.15-20.14-2.59-30.79zm-14.96 28.49c-2.02 14.97-12.09 27.91-26.19 33.67-6.91 2.88-14.39 3.74-21.87 2.88-7.2-0.87-14.39-3.17-21.87-7.48-10.36-5.76-20.72-14.68-32.81-27.92 19-23.31 30.51-44.6 34.82-63.59 2.02-8.93 2.3-16.98 1.44-24.47-1.15-7.19-3.74-13.81-7.77-19.56-8.92-12.95-23.88-20.44-40.57-20.44-16.69 0-31.66 7.77-40.58 20.44-4.03 5.75-6.62 12.37-7.77 19.56-1.15 7.49-0.86 15.83 1.44 24.47 4.32 18.99 16.11 40.57 34.82 63.88-11.8 13.24-22.45 22.16-32.81 27.91-7.48 4.32-14.67 6.62-21.87 7.49-7.77 0.86-15.25-0.29-21.87-2.88-14.1-5.76-24.17-18.71-26.18-33.67-0.87-7.2-0.29-14.39 2.59-22.45 0.86-2.87 2.3-5.75 3.74-9.21 2.01-4.6 4.31-9.49 6.62-14.38l0.28-0.58c19.86-42.88 41.15-86.62 63.31-129.21l0.87-1.73c2.3-4.31 4.6-8.92 6.9-13.23 2.3-4.61 4.89-8.92 8.06-12.66 6.04-6.91 14.1-10.65 23.02-10.65 8.92 0 16.98 3.74 23.02 10.65 3.17 3.74 5.76 8.05 8.06 12.66 2.3 4.31 4.61 8.92 6.91 13.23l0.86 1.73c21.87 42.88 43.17 86.62 63.02 129.5v0.29c2.3 4.6 4.32 9.78 6.62 14.38 1.44 3.46 2.88 6.34 3.74 9.21 2.3 7.48 3.17 14.68 2.02 22.16zm-114.82-13.52c-15.54-19.57-25.62-37.99-29.07-53.53-1.44-6.62-1.73-12.37-0.86-17.55 0.57-4.61 2.3-8.64 4.6-12.09 5.47-7.77 14.68-12.66 25.33-12.66 10.64 0 20.14 4.6 25.32 12.66 2.3 3.45 4.03 7.48 4.6 12.09 0.87 5.18 0.58 11.22-0.86 17.55-3.45 15.25-13.52 33.67-29.06 53.53z"/>
</svg>