<svg version="1.2" xmlns="http://www.w3.org/2000/svg" viewBox="0 0 3840 686" width="280" height="50">
	<style>
		.s0 { fill: #000000 } 
	</style>
	<filter id="f0">
		<feFlood flood-color="#2477cd" flood-opacity="1" />
		<feBlend mode="normal" in2="SourceGraphic"/>
		<feComposite in2="SourceAlpha" operator="in" />
	</filter>
	<g filter="url(#f0)">
		<path class="s0" d="m1849 338.5v338.5h54 54v-31.6-31.5l11.2 11.6c6.1 6.4 14.5 14.3 18.7 17.7 47.3 38.1 109.8 51.2 175.6 36.7 72-15.9 132.1-67 160.7-136.9 7.9-19.2 14.3-42.9 17.5-64.5 2.5-17.2 2.5-62.3 0-78.5-4.9-31.1-12.5-55.4-25.1-80.5-23.6-46.6-58.2-81.3-103.7-103.9-31.7-15.8-65.3-23.6-101.4-23.6-24.7 0-45.8 3.4-66.7 10.6-28.1 9.8-49.8 23.5-72.5 45.7l-12.3 12v-130.1-130.2h-55-55zm275-42c67.2 15 109.9 74.8 106.7 149.5-1.3 30.1-10.2 57.7-25.9 80.8-10.7 15.7-31.7 34-48.8 42.7-8.2 4.1-23.5 9.3-34 11.6-14.8 3.2-42.9 3.3-57.2 0.1-33.5-7.3-60.6-24.4-80.1-50.3-25.8-34.3-35.3-81.5-25.5-126.8 5.7-26.5 18-49.9 36.4-69.1 19.8-20.6 45.1-34.1 73.9-39.4 10.9-2.1 43.8-1.5 54.5 0.9z"/>
		<path class="s0" d="m1166.1 6c-15.1 3.2-26.3 9.1-36.6 19.5-13.2 13.2-19.5 28.9-19.5 48.7 0 20.5 6.1 35.9 19.3 49.3 13.9 13.9 30.4 20.5 51.2 20.5 20.8 0 37.3-6.6 51.2-20.5 9.1-9.2 14.9-19.6 17.7-31.5 2-8.4 2-26.5 0.1-35-5.4-22.9-23.2-41.5-47-49-7.9-2.5-28.6-3.6-36.4-2z"/>
		<path class="s0" d="m217 193.5c-96.9 12.1-174.2 74.5-203.9 164.5-9 27.3-12.4 49.8-12.5 81 0 22.7 1 34 5 53.5 17.6 87.4 78.9 155.3 164 181.5 25.8 8 48.9 11.3 78.4 11.3 31.3 0.1 54.9-3.6 82.5-12.8 70.9-23.5 123.8-76.5 147.1-147.5 2.8-8.5 7.4-26.6 7.4-29.3 0-1.6-3.4-1.7-57.8-1.7h-57.9l-1.2 4.2c-2.2 7.2-8.7 20.5-14.4 29-24.9 37.9-65.8 58.6-111.2 56.4-35.8-1.7-64-13.5-88.1-36.8-19.9-19.3-33-43.7-39.6-74.2-1.9-8.7-2.2-13.2-2.3-33.1 0-25.6 0.9-32.4 7-52 10.9-35 34.5-63.4 66-79.6 18.5-9.5 38.1-13.9 61.5-13.9 23 0 41 4.1 59.4 13.5 12.2 6.2 20.6 12.4 31.2 22.9 13.3 13.4 22.4 27.7 30.8 48.8l1.5 3.8h58c57 0 58.1 0 58.1-2 0-3.9-6.9-28.8-11-39.5-12.3-32.4-30.6-60.3-55-83.9-35.1-33.9-78.8-54.8-132-63.1-14.8-2.3-55.7-2.9-71-1z"/>
		<path class="s0" d="m743.8 193.5c-89.3 11.3-162.6 65.2-196.7 144.6-13.1 30.6-18.9 58-19.8 94.4-0.6 24.5 0.9 41.9 5.3 62.5 27 126.2 143.4 205.3 277.4 188.4 82.8-10.5 153.7-60.1 189.2-132.5 11.5-23.3 19.3-48.6 23.4-75.4 2.3-15 2.6-55.8 0.6-70.5-9.2-65.2-39.9-120.8-87.7-159-19.8-15.8-48.8-31.7-72.5-39.8-13.5-4.6-33.3-9.5-48-11.7-14.5-2.3-56.7-2.9-71.2-1zm60.9 102.9c34.2 7.8 62.6 26.5 82.1 54.1 23.9 33.8 32.6 80.4 23.1 124-5.8 26.9-19 51.5-37.4 70-18.9 19.1-42.8 31.7-70.2 37.2-12.2 2.4-40.4 2.4-52.6 0-42.3-8.4-76.6-34.4-95.5-72.2-18.1-36.5-21.1-83.2-7.7-123.1 11.8-35.3 36.5-63.8 68.5-79.4 10-4.8 24.3-9.4 35.5-11.5 10.8-1.9 44-1.4 54.2 0.9z"/>
		<path class="s0" d="m1553 193.5c-22.7 3.2-47.6 11.1-64.1 20.5-17.7 10-34.9 25-46.5 40.4l-5.9 7.9-0.3-30.6-0.2-30.7h-54.5-54.5v238 238h55 55v-134.3c0-142.8 0.1-144.6 4.9-163.2 5.7-22.3 16.3-40.6 31.9-55.7 13.7-13.2 29-21.6 49.2-27 9.7-2.6 36.5-3.6 47.8-1.8 44.3 7.1 74.2 37.8 82.9 85 1.5 8.7 1.7 22 2 153.3l0.4 143.7h55 55l-0.4-154.3c-0.3-139.1-0.5-155.4-2.1-166.2-7.2-50.9-25.2-90.4-53.8-118.1-23.8-23.2-51.8-37-88.6-43.5-15.5-2.8-52.6-3.5-68.2-1.4z"/>
		<path class="s0" d="m2580 193.1c-32.4 3.3-59.5 10.8-84.7 23.4-18.1 9.1-32 19.3-45.9 33.8-24.3 25.1-39.9 57.8-46.8 97.9l-0.7 3.8h54.9 54.8l1.3-6.2c4.9-23.7 23.2-44.5 47.2-53.8 17.8-6.9 38.1-9.5 61.3-7.9 40.6 2.7 66.8 19.9 71.7 47 2.5 13.9-1.7 26.7-11.7 35.8-13.8 12.6-40 20.9-82.8 26.1-40.5 5-49 6.2-63 9.1-100.1 20.4-148.7 70.3-145.3 148.9 1.6 36.6 13.5 64.9 37.1 88.6 26.7 26.6 62.6 41.1 111 44.6 33.8 2.4 67.7-2.3 95.1-13.3 30.6-12.3 55.5-34.4 71.8-63.9l4.1-7.4 1.3 7.9c5.4 32.5 26.2 55.8 57.8 65 12.4 3.6 28.4 4.7 63.5 4.3l29.5-0.3v-49-49l-27.2-0.3-27.3-0.2v-112.9c0-72.4-0.4-116.6-1.1-123.2-8.9-87.3-64-138.3-160.1-148.4-15.9-1.6-51.2-1.8-65.8-0.4zm117.8 281.4c-0.4 27-0.6 28.3-3.2 36.9-10.6 34.9-35.4 60.7-71.6 74.3-19 7.2-46.5 10-66.9 6.9-36.8-5.6-57.2-24.4-57.2-52.6 0-9.5 1.1-15.1 4.3-21.5 8.8-17.5 27.1-29 58.6-36.9 13-3.3 23.6-5 48.9-8 44-5.3 64-12.2 79.3-27.6l7.5-7.5 0.3 4c0.2 2.2 0.2 16.6 0 32z"/>
		<path class="s0" d="m3077 192.7c-22.2 2.1-38.1 4.9-54.8 9.8-58.5 17-98.7 53.7-110.8 101.1-6.4 25.5-5.2 54.8 3.2 80.4 13.5 40.7 47 69.1 100.1 84.9 16.2 4.8 31.7 7.6 85.4 15.5 27.8 4.1 54.4 8.4 59 9.6 12.2 3.1 25.3 9.7 31.7 16.2 10.2 10.1 14.6 23.8 12.3 38.1-3.9 24.2-23.6 38.5-62.1 44.9-11.4 1.9-49.2 1.6-61-0.5-27.6-4.8-48.1-14.8-61.4-29.9-5.7-6.4-12-18.9-14.3-28.1l-1.6-6.7h-54.2-54.2l0.4 3.3c0.3 1.7 1.1 6.8 2 11.2 14.4 76.2 72.7 126.3 162.3 139.5 61.5 9.1 127.1 1.2 171.5-20.5 17-8.3 28.5-16.5 41.6-29.5 21.3-21.2 32.2-42.1 37.3-71.9 2.1-12.2 2.1-35.1 0-48.9-7.8-52.9-43.9-89.9-105.4-108.5-16.7-5.1-31.7-7.8-85.5-15.7-47.2-7-61.8-9.8-72.6-14-13.3-5.3-23.8-14.3-28.6-24.5-2.5-5.3-2.8-7.2-2.8-16 0-9.1 0.3-10.6 3.1-16.6 8-16.9 27.3-27.6 57.4-31.9 11.4-1.6 38.6-1.3 49.8 0.6 22 3.6 37.9 11.1 50.8 23.9 8.6 8.6 14.8 19 17.5 29.4l1.3 5.1h53.4 53.4l-0.7-5.3c-1.2-8.8-7.2-30.7-11-40.2-8.4-21-20-38-36.8-54.2-28.8-27.7-68.8-44.6-118.5-49.8-12.2-1.3-47.1-1.8-57.2-0.8z"/>
		<path class="s0" d="m3583 192.6c-15.8 1.9-21.7 2.8-30 4.5-74.6 15.3-134.8 61.4-167.5 128.4-18.5 38-26.6 77.4-25.2 123 1.9 62.2 22.9 115.7 62.6 159.4 27.4 30.3 69.3 55.7 111.3 67.5 46.9 13.2 94.9 13.7 142.3 1.6 65.6-16.7 118.3-58.2 145.5-114.5 5.1-10.5 12.6-30.6 14.4-38.8l0.6-2.7h-57.4-57.4l-3.1 6.5c-6.7 14.4-21.7 31.8-34.4 39.9-27.4 17.5-64.1 24.1-100.9 18-53.3-8.8-92.7-46-106.7-100.9-1.6-6.1-3.2-12.7-3.5-14.8l-0.7-3.7h183.7 183.7l-0.6-33.3c-0.4-26.8-0.9-35.8-2.6-47-15.9-103.1-88-174.9-192.1-191.2-10.1-1.6-53.4-2.9-62-1.9zm50.8 98.3c32.1 6.8 57.5 23.3 73.8 47.7 8.6 12.9 16.4 32.1 18.1 44.1l0.6 4.3h-123.2c-100.9 0-123.1-0.2-123.1-1.3 0-0.7 1.3-5.1 2.9-9.8 13-38.4 38.9-66.4 73.7-79.5 8.1-3 20.4-6.1 29-7.3 10.8-1.5 37.3-0.5 48.2 1.8z"/>
		<path class="s0" d="m1056 250v49h34.5 34.5l0.2 188.7 0.3 188.8h55 55l0.3-237.8 0.2-237.7h-90-90z"/>
	</g>
</svg>