<svg version="1.2" xmlns="http://www.w3.org/2000/svg" viewBox="0 0 1420 224" width="317" height="50">
	<style>
		.s0 { fill: #000000 } 
	</style>
	<filter id="f0">
		<feFlood flood-color="#e989bc" flood-opacity="1" />
		<feBlend mode="normal" in2="SourceGraphic"/>
		<feComposite in2="SourceAlpha" operator="in" />
	</filter>
	<g filter="url(#f0)">
		<path class="s0" d="m51.7 29.8c-49.7 28.1-50.8 28.7-50.5 31.6 0.3 2.6 3.8 4.8 51.5 31.6l51.2 28.9 46.8-26.4 46.8-26.3 0.3 11.6c0.1 6.3-0.1 11.9-0.6 12.4-0.4 0.4-21.6 12.5-47 26.8l-46.3 26-49.8-28c-32.9-18.5-50.3-27.8-51.4-27.4-1.5 0.5-1.7 2.9-1.7 20.8v20.2l50.9 28.7c28 15.8 51.4 28.7 52 28.7 0.7 0 21.9-11.7 47.3-26 25.3-14.3 46.3-26 46.4-26 0.2 0 0.4 5.4 0.4 11.9v11.9l-46.6 26.2c-28 15.8-47.2 26-48.3 25.7-1-0.2-23.5-12.7-50-27.6-33.8-19-48.9-27-50.2-26.6-1.3 0.5-1.9 1.6-1.9 3.8 0 3.2 0.3 3.4 50.6 31.7 27.8 15.7 51.4 28.5 52.3 28.5 1 0 24.5-12.8 52.4-28.5l50.7-28.5v-20.2c0-18.8-0.1-20.2-1.9-20.8-1.2-0.4-17.5 8.3-51.5 27.4l-49.7 27.9-46.2-25.9c-25.4-14.3-46.7-26.5-47.4-27.1-1.4-1.2-1.9-22.3-0.6-23.1 0.5-0.3 21.5 11.2 46.8 25.4 25.3 14.2 46.6 25.9 47.4 25.9 0.7 0 24.2-12.9 52.2-28.6l50.9-28.6v-19.9-19.9l-2.4-0.6c-1.8-0.4-13.1 5.5-51.5 27.1l-49.2 27.7-44.9-25.3c-34.7-19.6-44.7-25.6-43.8-26.5 0.7-0.6 21-12.2 45-25.7l43.7-24.5 32.8 18.5c43.7 24.6 39.9 22.8 42.9 20.8 1.3-0.8 2.4-2.3 2.4-3.3 0-1.3-10.5-7.7-38.1-23.2-21-11.8-38.9-21.6-39.8-21.7-0.9-0.1-24.5 12.7-52.4 28.5z"/>
		<path class="s0" d="m376 45.9c0 18.1-0.3 33.6-0.6 34.5-1 2.6-3.3 1.8-8.7-2.9-9.2-8.1-23.5-13.5-35.7-13.5-7.4 0-18 2.7-26 6.6-9.2 4.5-20.9 15.9-25.7 24.9-6 11.4-7.8 19.5-7.7 34 0 11.3 0.4 14.1 2.7 21 7.1 21.3 23.3 36.8 43.7 41.6 8.5 2 21.3 1.5 29-1.1 8.3-2.7 13.3-5.7 19.8-11.5 7.2-6.5 8.6-5.9 9 3.3l0.3 7.2h12.9 13v-88.5-88.5h-13-13zm-22 45.5c10.8 5.6 17.8 13.7 21.1 24.8 6 19.7-3 41.2-21 50.1-6.1 3-7.3 3.2-16.6 3.2-9.7 0-10.4-0.2-17.7-3.8-32.5-16-29-65.1 5.5-76.3 2.7-0.9 7.6-1.3 13.7-1.1 8.1 0.3 10.3 0.7 15 3.1z"/>
		<path class="s0" d="m805 101.5v88.5h13 13v-5.4c0-3 0.3-6.1 0.6-7 1.1-2.8 4.5-1.7 9.4 2.8 11.6 10.9 31.2 15.6 48 11.7 22.2-5.2 40.3-24.2 45.5-47.7 2.5-11 1.7-27.1-1.9-38.1-8.5-26.3-33.5-43.9-59.6-41.9-12.8 0.9-23.1 5.4-32.9 14.2-8.8 7.9-8.6 8.6-8.6-31.5v-34.1h-13.2-13.3zm81.3-10.3c8.4 3.9 15.7 11.4 19.8 20.1 3.2 6.8 3.4 7.9 3.4 17.7 0 9.7-0.2 11-3.2 17.2-10.8 22.8-37.4 30.7-58 17.2-20.8-13.6-24.3-44.4-7-63.1 8.2-8.9 16.9-12.4 30.2-12 7.3 0.2 10.1 0.7 14.8 2.9z"/>
		<path class="s0" d="m1047.5 14.4c-9.4 4.2-12.4 16.9-5.8 24.6 7.2 8.6 18.8 8 25.7-1.3 1.6-2.1 2.1-4.3 2.1-8.7 0-6.3-1.6-9.5-6.7-13.3-3.3-2.5-11.3-3.2-15.3-1.3z"/>
		<path class="s0" d="m1216 101.5v88.5h13 13v-24.3-24.3l3.3-3.2c1.8-1.8 4-3.2 4.9-3.2 0.9 0 11.2 11.9 23.8 27.5l22.2 27.5h15.9 15.9l-21.3-25.8c-11.7-14.1-24.3-29.4-28-33.8-3.7-4.5-6.7-9-6.7-10 0-1.1 10.6-12.5 25.7-27.6l25.8-25.8h-15.5-15.5l-23 23c-16.7 16.8-23.5 23-25 22.8-2-0.3-2-1.2-2.3-50.1l-0.2-49.7h-13-13z"/>
		<path class="s0" d="m586.8 47.7l-0.3 18.8-10.5 0.5-10.5 0.5-0.3 10.2-0.3 10.3h9.9c6.8 0 10.3 0.4 11 1.3 0.7 0.8 1.2 14 1.4 37.2 0.4 33.9 0.5 36.4 2.6 42.6 3.2 9.5 7.8 15.1 15.9 19.1 6.5 3.2 7.3 3.3 20.3 3.6 7.4 0.2 15.1 0 17-0.5l3.5-0.9 0.3-10.7 0.3-10.7h-11.3c-13.6 0-16.7-1.4-20.1-8.8-2.1-4.5-2.2-6.3-2.5-37-0.2-23.9 0-32.7 0.9-33.8 0.9-1.1 4.1-1.4 14.5-1.4h13.4v-10.5-10.4l-14.2-0.3-14.3-0.3-0.3-18.8-0.2-18.7h-13-13z"/>
		<path class="s0" d="m466.5 65.5c-30.7 6.7-51.3 37.4-47.4 71 1.1 9.9 4.6 20.7 9.4 28.4 4.6 7.6 15.9 18.3 23.5 22.1 20.9 10.6 45.9 7.7 61.5-7.1 2.9-2.7 6.1-4.9 7.3-4.9 2.1 0 2.2 0.5 2.2 7.5v7.5h13 13v-61.5-61.6l-12.7 0.3-12.8 0.3-0.5 7c-0.7 9.1-2.2 9.5-9.6 2.5-11.4-10.7-29.8-15.3-46.9-11.5zm35.8 26.3c30.1 14.8 29.5 60-1 74.5-6.3 2.9-7.6 3.2-16.8 3.2-8.7 0-10.7-0.4-15.7-2.7-6.7-3.1-14.7-10.2-18.2-16.2-6.8-11.6-7.5-28.3-1.7-40.1 3.9-7.9 10.2-14.5 17.2-18.1 8.1-4 9.6-4.4 20-4.1 8.5 0.2 10.3 0.6 16.2 3.5z"/>
		<path class="s0" d="m700 65.6c-22.2 4.8-39.2 22.2-46.1 47.4-0.7 2.5-1.3 9.7-1.3 16 0 9.3 0.4 12.9 2.3 19 6.7 21.7 20 35.9 39.6 42.6 6.5 2.2 9.8 2.7 17.5 2.6 14.9 0 26.5-4.6 36.6-14.4 6.2-5.9 7.8-5.1 8.2 4l0.3 7.2h13 12.9l-0.2-61.3-0.3-61.2h-12.5-12.5l-0.5 7c-0.6 9-2.1 9.4-9.5 2.6-12.2-11-29.8-15.4-47.5-11.5zm35.5 25.9c7.9 3.8 14.9 10.9 18.8 19.3 3 6.3 3.2 7.3 3.2 18.2 0 11-0.2 11.9-3.2 18.1-4.2 8.4-10.8 15-19.1 19.1-6.2 3.1-7.4 3.3-16.7 3.3-9.2 0-10.6-0.3-16.7-3.2-8.5-4-15.1-10.6-19.1-19.1-3-6.4-3.2-7.3-3.2-18.7 0-11.6 0.1-12.2 3.2-18.2 4.1-7.8 8-12.3 14.3-16.3 7.6-4.9 12.2-6 23-5.7 8 0.3 10.4 0.8 15.5 3.2z"/>
		<path class="s0" d="m1140.5 64.7c-24.7 3.4-44.5 19.6-52.2 42.7-2.4 7.1-2.7 9.7-2.8 21.1 0 10.9 0.4 14.2 2.3 20.5 8.7 28 31.9 44.4 62.7 44.2 15.8 0 24.7-3 40.7-13.5l7.7-5-7.2-7.8-7.2-7.8-5.2 3c-20.4 11.7-42.9 9.7-56.6-5-14-15-14.8-37.9-2-54.8 6.2-8.1 20.2-14.3 32.1-14.3 8.5 0 15.1 1.8 24 6.5l7.1 3.7 8.1-7.3 8.2-7.4-3.5-3c-14-12.1-36.8-18.5-56.2-15.8z"/>
		<path class="s0" d="m1362.8 65.5c-24.3 6.2-36.5 28.2-27.5 49.7 4 9.6 13.4 15.9 34 22.7 21.3 7.1 24.8 9.6 24.9 18 0.1 6.1-1.9 9.9-6.6 12.5-11.7 6.7-27.1 2.4-35.3-10l-3.5-5.3-9.9 5.2c-5.4 2.9-9.9 5.8-9.9 6.6 0 2.4 5.8 10.7 10.9 15.4 18.8 17.6 52.9 17.4 69.5-0.3 10.6-11.3 13.3-26.7 7-39.7-4.8-9.9-14.2-16.1-34.4-22.8-6.3-2.1-13.1-4.6-15-5.5-8.5-4.4-11.9-12.1-8.3-18.9 2.6-4.9 8.3-7.6 15.9-7.5 7.8 0.1 14.1 3.5 19 10.5 2 2.7 3.8 4.9 4 4.9 0.6 0 14.7-7.6 18.2-9.7l2.2-1.4-2.9-4.2c-3.6-5.3-11.7-12.9-16.1-15.2-10.9-5.6-25.7-7.7-36.2-5z"/>
		<path class="s0" d="m1005.5 67.1c-7.4 2.4-14.6 7.5-18.8 13.5-2.2 3.2-3.7 4.4-5.2 4.2-1.8-0.3-2.1-1.2-2.5-8.8l-0.5-8.5h-12.5-12.5l-0.3 61.2-0.2 61.3h13 13v-29.3c0-16 0.5-32.1 1.1-35.7 3.2-20.1 16.5-33 34.5-33.4l7.4-0.1v-13.3-13.2l-5.2 0.1c-2.9 0-8 0.9-11.3 2z"/>
		<path class="s0" d="m1041.7 67.6c-0.4 0.4-0.7 28.1-0.7 61.6v60.8h13.5 13.5l-0.2-61.3-0.3-61.2-12.6-0.3c-6.9-0.1-12.8 0.1-13.2 0.4z"/>
	</g>
</svg>