<svg version="1.2" xmlns="http://www.w3.org/2000/svg" viewBox="0 0 627 126" width="249" height="50">
	<style>
		.s0 { fill: #000000 } 
	</style>
	<filter id="f0">
		<feFlood flood-color="#9a9a9a" flood-opacity="1" />
		<feBlend mode="normal" in2="SourceGraphic"/>
		<feComposite in2="SourceAlpha" operator="in" />
	</filter>
	<g filter="url(#f0)">
		<path class="s0" d="m61.8 12.1c-1 0.5-2.9 3-4.4 5.4-3.7 6.5-9.3 8.8-20.1 8.6-11-0.3-12.4 0.6-11.7 6.7 0.4 2.6 1.5 6.6 2.5 9 2.7 6.2 1 13.4-4.2 18-2.1 1.8-4.8 4.9-6 6.9l-2.3 3.6 4.2 3.7c2.3 2.1 6.1 4.3 8.4 4.9 3.2 1 5.1 2.3 7.2 5.4 2.6 3.6 3 5.1 3 11.2l0.1 7 4.1-0.1c2.3 0 5.9-1 8-2.1 2.8-1.5 4.6-1.8 6.2-1.2 1.3 0.5 4.4 1 6.9 1.1 3.1 0.1 5.4 0.9 7.3 2.4 1.5 1.3 4 2.8 5.5 3.4 3.6 1.4 5.3-0.2 6.9-6.3 1.5-5.8 9-14.1 13.7-15.1 6.3-1.2 7.6-4.4 3.5-9.3-1.6-1.9-2.5-4.6-2.9-8.7-0.4-3.9-1.5-7.4-3.4-10.5-11-17.7-39.3-13.1-39.3 6.4 0 5.7 2.1 10 6.3 12.5 3.3 2 10.1 2.6 12.5 1.2 0.7-0.5-0.9-0.8-3.9-0.8-4.5 0.1-5.4-0.3-8-3.2-5.3-6-3.4-14.8 4.1-18.7 10.2-5.3 24.1 4.8 22.6 16.3-1.7 12.6-13 21.6-24.8 19.7-10.3-1.7-20.2-10.1-23.4-19.7-3.3-9.9-0.1-23.4 7.4-31.1 6.5-6.8 10.3-8.2 21.7-8.2 8.9 0 10.6 0.3 15.7 2.8 7.1 3.5 12.8 9.9 16.2 18l2.5 6.2 0.1-4.2c0-5.5-3.1-13.8-7.1-18.6-2.2-2.7-3.2-5-3.3-7.8-0.3-5.7-1.5-6.5-7.1-4.7-4 1.4-5.2 1.4-9.5 0.1-3.1-0.9-5.1-2.1-5.5-3.3-0.7-2.2-5.9-8-7.2-8-0.4 0-1.6 0.5-2.5 1.1z"/>
		<path class="s0" d="m143.7 31.4c-21.2 7.6-28.2 34.7-13.2 51.4 6.1 6.8 12.8 9.6 22.5 9.7 6.2 0 8.5-0.5 13.2-2.8 10.1-5 16.2-14 17.5-25.6l0.6-6.1-17.4 0.2-17.4 0.3v3.5 3.5l12.8 0.3c12.7 0.3 12.8 0.3 12.2 2.5-2.9 9.4-11.6 15.9-21.5 15.9-9.3 0-15.9-4.3-19.9-13.2-4.1-9-2.2-18.9 4.9-26.1 7.8-7.8 18.5-9 28.2-3l4.6 2.9 2.3-2.4c3.1-3.3 2-5-6-9.2-5.3-2.7-7.3-3.2-12.9-3.2-3.7 0.1-8.4 0.7-10.5 1.4z"/>
		<path class="s0" d="m453.8 61l0.3 31h15.4 15.5v-4-4h-11.5-11.5v-27-27h-4.2-4.3z"/>
		<path class="s0" d="m277.4 34.1c-1.8 0.5-4.6 2.5-6.3 4.4l-3.1 3.6v23.9c0 13.2 0 24.3 0 24.7 0 0.5 1.8 0.9 4 1.1l4 0.3v-17-17.1h6.5 6.5v-4-4h-6.5c-6.2 0-6.5-0.1-6.5-2.4 0-3.4 4.4-6.6 9.1-6.6 3.2 0 4.1-0.5 5.4-3 0.8-1.6 1.5-3.4 1.5-4 0-1.2-10.2-1.2-14.6 0.1z"/>
		<path class="s0" d="m537 62.4v29.6h3.5c2.8 0 3.5-0.4 3.5-2 0-1.1 0.1-2 0.3-2 0.1 0 2.4 1.1 5.1 2.5 18.6 9.4 38.1-10.7 28.6-29.5-5.2-10.1-19-14.7-28.2-9.3l-3.7 2.2-0.3-10.2-0.3-10.2-4.2-0.3-4.3-0.3zm27.5-3c12.3 5.2 8.1 24.6-5.3 24.8-7.7 0.1-13.2-5.5-13.2-13.4 0-5 1.8-8.1 6.4-10.9 3.7-2.3 7.4-2.4 12.1-0.5z"/>
		<path class="s0" d="m502.8 50c-5.4 1.6-9.9 5.3-12.8 10.4-10.7 18.5 8.7 39.7 27.6 30.1 2.7-1.4 5-2.5 5.2-2.5 0.1 0 0.2 0.9 0.2 2 0 1.6 0.7 2 3.5 2h3.5v-21-21h-3.5c-3.1 0-3.5 0.3-3.5 2.6v2.5l-2.7-1.9c-5.6-3.8-11.7-5-17.5-3.2zm12.1 9.8c3.7 2 7.1 7.2 7.1 10.9 0 12.4-15.6 18.5-23.4 9.3-3.7-4.5-4.3-9-1.7-14.4 3.5-7.1 11-9.5 18-5.8z"/>
		<path class="s0" d="m593 50c-5 1.2-9 6.1-9 10.9 0 5.2 3.4 9.2 10.2 12.1 8.8 3.7 10.9 6.8 7 10.3-2.3 2.1-6.2 2.2-10.9 0.2-2-0.8-3.7-1.4-3.8-1.3-0.1 0.2-1 1.8-1.9 3.6l-1.7 3.3 3.8 1.6c5.6 2.4 13.4 2.8 16.9 1 4.6-2.4 7.5-6.2 8.1-10.4 0.8-5.9-2.6-10-11.9-14.6-7.9-3.8-9.4-5.7-6.6-8.5 1.5-1.5 7.3-1.6 10-0.1 1.8 1 2.5 0.8 4-1.1 2.9-3.5 2.2-4.8-3.4-6.5-5.7-1.7-5.8-1.7-10.8-0.5z"/>
		<path class="s0" d="m191 70.9v21.1h4 4v-13.5c0-13.3 0-13.5 2.8-16.5 1.9-2.3 3.9-3.3 7.1-3.7 3.7-0.5 4.5-1 5.7-3.9 0.8-1.8 1.4-3.6 1.4-3.9 0-1.1-11.3-0.4-14.7 1-4.3 1.8-4.4 1.8-4 0.2 0.1-0.7-1.1-1.3-3-1.5l-3.3-0.3z"/>
		<path class="s0" d="m228.5 51.5c-4.2 2.3-9.2 7.2-11 11.1-2.1 4.5-1.9 13.6 0.4 18.2 5.7 11 17.9 15.2 28.7 9.7 2.7-1.4 5-2.5 5.2-2.5 0.1 0 0.2 0.9 0.2 2 0 1.6 0.7 2 3.5 2h3.5v-21-21h-3.5c-3.1 0-3.5 0.3-3.5 2.5 0 3.1-0.3 3.1-4.1 0.3-4-3-15-3.7-19.4-1.3zm17.6 10.1c5.6 5.3 6.1 12.6 1.3 18.4-9.8 11.6-28.3-0.8-21.6-14.5 3.8-7.8 14.1-9.9 20.3-3.9z"/>
		<path class="s0" d="m302.1 52.1c-12.4 6.3-15.5 22.9-6.3 33.2 7.1 7.8 16.7 9.8 25.8 5.2 5.8-3 5.6-2.9 5.2-0.8-0.2 1.4 0.5 1.9 3.5 2.1l3.7 0.3-0.2-20.8-0.3-20.8h-3.5c-3 0-3.5 0.3-3.3 2.2 0.3 2.9-0.1 2.9-4 0.1-4.7-3.3-14.7-3.7-20.6-0.7zm14.6 7c9.4 3.5 11.6 15.1 4.2 22-5.9 5.5-14.8 4.2-19.6-3-4.2-6.2-1.9-14.7 4.8-18.3 3.9-2.1 6.6-2.3 10.6-0.7z"/>
		<path class="s0" d="m343 71v21h4 4v-13c0-14.6 0.8-17.2 5.7-19.5 4.2-2 7.6-1.3 10.9 2.2 2.3 2.5 2.4 3.2 2.4 16.4v13.9h4.1 4l-0.3-15.9c-0.3-17.3-0.7-18.7-7.1-23.5-3.6-2.7-12.5-3.3-16.8-1.2-2.9 1.5-3.4 1.5-4.1 0.1-0.5-0.8-2.2-1.5-3.8-1.5h-3z"/>
		<path class="s0" d="m397.5 51.3c-4.1 1.9-9.5 7.4-11.1 11.4-2 4.8-1.8 13.7 0.5 18.1 5.7 11 17.9 15.2 28.7 9.7 2.7-1.4 5-2.5 5.2-2.5 0.1 0 0.2 0.9 0.2 2 0 1.6 0.7 2 3.5 2h3.5l-0.2-20.8-0.3-20.7-3.2-0.3c-3-0.3-3.3-0.1-3.3 2.2 0 3.2-0.3 3.2-4.1 0.4-3.7-2.8-14.7-3.6-19.4-1.5zm15.6 9c7.2 4.7 8.6 13.4 3.3 19.7-7.1 8.3-20.9 4.4-23-6.5-1.3-6.9 5.9-15.5 13.1-15.5 1.8 0 4.7 1 6.6 2.3z"/>
	</g>
</svg>