<svg version="1.2" xmlns="http://www.w3.org/2000/svg" viewBox="0 0 1279 313" width="204" height="50">
	<defs>
		<clipPath clipPathUnits="userSpaceOnUse" id="cp1">
			<path d="m0 0h1278.5v312.44h-1278.5z"/>
		</clipPath>
	</defs>
	<style>
		.s0 { fill: #e60023 } 
		.s1 { fill: #ffffff } 
	</style>
	<g id="g10">
		<path id="path12" class="s0" d="m503.65 112.62h40.38v126.84h-40.38z"/>
		<g id="g14">
			<g id="Clip-Path: g16" clip-path="url(#cp1)">
				<g id="g16">
					<g id="g22">
						<path id="path24" class="s0" d="m552.46 112.62h38.9v17.34h0.74c9.41-13.63 21.55-21.06 39.14-21.06 27.75 0 44.1 19.82 44.1 48.06v82.5h-40.38v-74.32c0-13.38-6.69-22.55-19.82-22.55-13.38 0-22.3 11.15-22.3 26.76v70.11h-40.38z"/>
					</g>
					<g id="g26">
						<path id="path28" class="s0" d="m548.06 78.68c0-13.37-10.85-24.22-24.22-24.22-13.38 0-24.23 10.85-24.23 24.22 0 13.38 10.85 24.23 24.23 24.23 13.37 0 24.22-10.85 24.22-24.23z"/>
					</g>
					<g id="g30">
						<path id="path32" class="s0" d="m959.35 110.79q-1.72-0.16-4.02-0.15c-15.36 0-25.77 6.69-34.69 21.8h-0.74v-19.82h-38.65v126.84h40.38v-56.98c0-26.4 14.62-38.63 37.72-36.5z"/>
					</g>
					<g id="g34">
						<path id="path36" class="s0" d="m1157.51 159.44c-16.1-2.97-30.47-4.21-30.47-13.13 0-7.93 7.68-11.64 17.59-11.64 11.15 0 18.83 3.47 20.31 14.86h37.16c-1.98-25.02-21.3-40.63-57.22-40.63-29.98 0-54.75 13.88-54.75 40.63 0 29.73 23.53 35.68 45.58 39.39 16.85 2.98 32.21 4.21 32.21 15.61 0 8.17-7.68 12.63-19.82 12.63-12.18 0-20.24-5.15-22.71-15.6h-38.47c2.83 26.07 25.72 41.86 61.42 41.86 33.2 0 57.73-14.36 57.73-42.11 0-32.46-26.26-38.15-48.56-41.87z"/>
					</g>
					<g id="g38">
						<path id="path40" class="s0" d="m1024.22 214.19c-16.6 0-26.02-10.65-28.49-27.75h91.16c0.25-25.76-7.18-47.81-22.29-61.68-10.9-9.91-25.27-15.86-43.36-15.86-38.64 0-65.15 28.99-65.15 66.89 0 38.4 25.76 67.39 67.63 67.39 16.1 0 28.99-4.21 39.64-11.65 11.15-7.68 18.58-18.58 21.3-29.97h-39.39c-3.47 7.92-10.4 12.63-21.05 12.63zm-2.23-76.55c13.13 0 22.54 9.66 24.03 24.77h-50.05c2.73-15.11 10.66-24.77 26.02-24.77z"/>
					</g>
					<g id="g42">
						<path id="path44" class="s0" d="m1277.19 209.55c-1.87 0.07-4.39 0.18-6.69 0.18-8.68 0-14.13-2.48-14.13-12.38v-59.46h20.82v-25.27h-20.82v-40.13h-39.39v40.13h-12.39v25.27h12.39v68.13c0 27.25 16.85 34.93 40.39 34.93 8.98 0 15.76-0.68 19.82-1.47z"/>
					</g>
					<g id="g46">
						<path id="path48" class="s0" d="m747.45 209.61c-1.61 0.06-3.47 0.12-5.21 0.12-8.67 0-14.12-2.48-14.12-12.39v-59.45h19.33v-25.27h-19.33v-40.13h-39.39v40.13h-13.13v25.27h13.13v68.13c0 27.25 16.85 34.93 40.38 34.93 7.97 0 14.2-0.53 18.34-1.2z"/>
					</g>
					<g id="g50">
						<path id="path52" class="s0" d="m745.48 175.79c0-37.9 26.51-66.89 65.16-66.89 18.08 0 32.45 5.95 43.35 15.86 15.11 13.87 22.54 35.92 22.3 61.68h-91.17c2.48 17.1 11.89 27.75 28.49 27.75 10.65 0 17.59-4.71 21.05-12.63h39.4c-2.73 11.39-10.16 22.29-21.31 29.97-10.65 7.43-23.53 11.65-39.64 11.65-41.87 0-67.63-28.99-67.63-67.39zm89.93-13.38c-1.49-15.11-10.9-24.77-24.03-24.77-15.36 0-23.29 9.66-26.01 24.77z"/>
					</g>
					<g id="g54">
						<path id="path56" class="s0" d="m361.67 62.33h70.12c21.55 0 37.41 5.94 48.31 16.35 11.4 10.65 17.84 25.76 17.84 43.6 0 33.94-23.54 57.97-59.96 57.97h-35.43v59.21h-40.88zm71.85 83.24c15.85 0 24.77-9.41 24.77-23.54 0-14.12-9.16-22.79-24.77-22.79h-30.97v46.33z"/>
					</g>
					<g id="g58">
						<path id="path60" class="s1" d="m306.23 156.22c0 84.2-68.26 152.46-152.46 152.46-84.2 0-152.46-68.26-152.46-152.46 0-84.2 68.26-152.46 152.46-152.46 84.2 0 152.46 68.26 152.46 152.46z"/>
					</g>
					<g id="g62">
						<path id="path64" class="s0" d="m153.77 3.76c-84.2 0-152.46 68.26-152.46 152.46 0 64.59 40.19 119.8 96.9 142.02-1.33-12.06-2.53-30.61 0.53-43.78 2.77-11.9 17.88-75.79 17.88-75.79 0 0-4.56-9.13-4.56-22.63 0-21.2 12.29-37.03 27.59-37.03 13 0 19.29 9.77 19.29 21.48 0 13.08-8.33 32.64-12.63 50.76-3.59 15.17 7.61 27.55 22.58 27.55 27.09 0 47.92-28.57 47.92-69.82 0-36.5-26.23-62.02-63.68-62.02-43.38 0-68.84 32.54-68.84 66.16 0 13.1 5.04 27.16 11.34 34.79 1.25 1.51 1.43 2.84 1.06 4.38-1.16 4.81-3.73 15.17-4.23 17.29-0.67 2.79-2.21 3.38-5.1 2.04-19.04-8.87-30.95-36.71-30.95-59.07 0-48.09 34.94-92.26 100.74-92.26 52.89 0 93.99 37.69 93.99 88.06 0 52.54-33.13 94.83-79.12 94.83-15.45 0-29.97-8.03-34.94-17.51 0 0-7.65 29.11-9.5 36.24-3.44 13.24-12.73 29.84-18.95 39.97 14.27 4.42 29.43 6.8 45.14 6.8 84.2 0 152.46-68.26 152.46-152.46 0-84.2-68.26-152.46-152.46-152.46z"/>
					</g>
				</g>
			</g>
		</g>
	</g>
</svg>