<svg version="1.2" xmlns="http://www.w3.org/2000/svg" viewBox="0 0 2390 745" width="160" height="50">
	<style>
		.s0 { fill: #000000 } 
	</style>
	<filter id="f0">
		<feFlood flood-color="#a62a2a" flood-opacity="1" />
		<feBlend mode="normal" in2="SourceGraphic"/>
		<feComposite in2="SourceAlpha" operator="in" />
	</filter>
	<g filter="url(#f0)">
		<path class="s0" d="m358 23c-82.4 7.2-156.4 40.7-214.6 97.3-43.9 42.6-75.6 95.9-92.2 155.2-13.7 48.5-16.3 106.3-7.1 156 18.9 102.2 80.9 189.1 171.6 240.4 77 43.6 172.5 55.4 259.8 32.1 126.7-33.7 223.9-137.3 249.9-266.3 5-25 6.1-37.1 6.1-68.7 0-31.6-1.1-43.7-6.1-68.7-20.1-99.7-82-184.6-171.1-234.4-39.9-22.4-83.5-36.2-131.8-41.9-12.4-1.5-51.8-2.1-64.5-1zm65.3 94c116.1 17.3 204.9 111.3 215.8 228.4 2.2 23.4 0.4 52.8-4.6 77.7-15.8 77.8-73.3 147.9-147.5 179.7-110.7 47.5-239 12.2-308.6-84.8-34.4-48-50.5-104-47.3-164.3 4.9-89.5 56.9-169.6 136.9-211 29-15 60.5-24.3 94.5-27.7 13.9-1.4 44.9-0.4 60.8 2z"/>
		<path class="s0" d="m283 214c-4.1 1.1-11.3 3.9-16 6.2-6.9 3.4-10.2 5.8-17.5 13.2-7.4 7.4-9.9 10.7-13.2 17.6-2.3 4.7-5 11.4-5.9 15-2.1 8-2.4 25.2-0.5 33 9.6 39.4 48.9 63.4 87.6 53.5 3.3-0.8 9.8-3.4 14.5-5.7 6.8-3.3 10.2-5.9 17.6-13.2 7.7-7.7 9.8-10.5 13.8-18.6 6.1-12.4 7.9-21.3 7.3-35-1.3-29.9-20.4-54.9-49.2-64.6-11.1-3.7-27.6-4.3-38.5-1.4z"/>
		<path class="s0" d="m456.5 213.4c-27 6.3-47.9 26.3-54.5 52.2-2.4 9.4-2.6 25.1-0.5 34.2 5.8 24.7 24.8 44.4 50.5 52.3 10.6 3.3 27.4 3.3 38 0 20.9-6.4 36.9-20 45.6-38.8 4.6-9.8 6.4-18 6.4-29.9 0-19.9-6.7-36.2-20.5-49.9-14.2-14.1-28.5-20.4-48-21.1-7.1-0.2-13.1 0.1-17 1z"/>
		<path class="s0" d="m288.2 384c-25.6 4.6-48.2 23.8-56.1 47.7-6.2 18.6-4.8 36.8 4.2 55.3 3.3 6.9 5.8 10.2 13.2 17.5 13.5 13.6 27.7 20.1 46.1 21.2 39.6 2.5 73.3-27.9 75.1-67.7 0.6-13.7-1.2-22.6-7.3-35-4-8.1-6.1-10.9-13.8-18.6-7.4-7.3-10.8-9.9-17.6-13.2-4.7-2.3-11.2-4.9-14.5-5.7-7.5-2-22.3-2.7-29.3-1.5z"/>
		<path class="s0" d="m462.5 383.6c-1.1 0.2-4.5 0.9-7.5 1.5-7.3 1.5-18.7 6.8-26.6 12.5-12.3 8.7-23.3 25.3-26.8 40.4-2.2 9.3-2 24.9 0.4 34.4 3.1 12.2 9.2 22.8 18.5 32.1 9.1 9.1 17.5 14.4 29 18.2 7.1 2.4 9.5 2.7 21.5 2.7 12 0 14.4-0.3 21.5-2.7 11.5-3.8 19.9-9.1 29-18.2 13.8-13.7 20.5-30 20.5-49.9 0-12.4-1.9-20.6-7-31.1-9-18.4-26.3-32.7-46.2-38.1-5.4-1.5-22.7-2.7-26.3-1.8z"/>
		<path class="s0" d="m918 177.1c-32.2 10.3-59.3 18.8-60.2 18.9-0.9 0-2.4 1-3.2 2.2-1.4 1.9-1.6 6.9-1.6 34.5v32.3h-16c-15.7 0-16.1 0.1-18.5 2.5l-2.5 2.4v46.1c0 44.7 0.1 46.1 2 48 1.8 1.8 3.3 2 18.4 2h16.4l0.5 65.2c0.5 68.5 0.6 70.6 5.3 86.7 10.4 36.1 36.3 57.9 78 65.6 12 2.3 44 3.1 57.5 1.6 19.8-2.3 38.6-7.1 52.7-13.6l7.2-3.4v-47.4c0-45.9-0.1-47.4-2-49.2-1.9-1.7-2.1-1.7-6.7 0.3-9.5 4-18.3 5.6-30.3 5.6-9.9 0.1-12.2-0.3-16.7-2.3-6.6-2.9-11.5-8.3-13.9-15.2-1.7-5-1.9-9-1.9-49.4v-44l34.9-0.3c30.8-0.2 35.2-0.4 36.8-1.9 1.7-1.5 1.8-4.2 1.8-40.2 0-21.7 0.4-37.9 0.9-37.1 0.5 0.8 20.5 66.7 44.6 146.5 24 79.7 44.1 145.7 44.6 146.7 0.5 1 1.8 2.2 2.9 2.8 3 1.6 101.1 1.4 103.3-0.3 1.1-0.7 9.6-25.6 23-67.4 11.8-36.5 21.6-66.5 21.9-66.8 0.5-0.5 20 61.8 32.5 104.4 5.8 19.7 8.4 26.9 10.2 28.7l2.4 2.4h50.2c46.5 0 50.4-0.1 52.2-1.8 1.5-1.2 14.5-43.2 46.4-149.2l44.4-147.5 0.3 146.9 0.2 147 2.2 2.3 2.1 2.3h61.4c60 0 61.3 0 63.3-2 2-2 2-3.3 2-158.8-0.1-128.7-0.3-157-1.4-158.5-1.2-1.6-8.2-1.7-121.3-1.7-115.6 0-120.1 0.1-121.7 1.9-1 1.1-7.7 25-16.7 59.7-8.2 31.8-15.7 60.1-16.6 62.9-1.5 4.5-1.7 4.7-2.5 2.6-0.4-1.3-9-29.4-18.9-62.5-12.1-40.2-18.8-60.8-20.2-62.4l-2-2.2h-48.7c-45.6 0-48.8 0.1-50.3 1.8-0.9 1-2.8 5.8-4.2 10.6-5.7 19.8-34.7 116.1-35.1 116.5-0.9 0.9-3.4-8.9-16.8-64.7-11.8-48.7-14.7-59.7-16.6-61.7l-2.3-2.5h-93.4-93.3v-49.9c0-48.9 0-49.9-2.1-52.5-1.2-1.5-3-2.6-4.2-2.5-1.2 0-28.5 8.6-60.7 19z"/>
		<path class="s0" d="m1538 161c-1.9 1.9-2 3.3-2 40v38.1l2.5 2.4 2.4 2.5h63.1 63.1l2.4-2.5 2.5-2.4v-37.9-37.9l-2.3-2.1-2.3-2.2h-63.7c-62.4 0-63.7 0-65.7 2z"/>
		<path class="s0" d="m1695.1 161.6l-2.1 2.7v205.4c0 227-0.5 210.6 6.3 211.8 1.7 0.3 29.9 0.5 62.5 0.3l59.4-0.3 1.9-2.4c1.9-2.3 1.9-7 1.9-209.6 0-187.2-0.2-207.5-1.6-208.9-1.4-1.4-8.5-1.6-63.9-1.6h-62.4z"/>
		<path class="s0" d="m1848 161c-1.9 1.9-2 3.3-2 40v38.1l2.5 2.4 2.4 2.5h62.9c62.2 0 63 0 65.6-2.1l2.6-2v-39.3c0-29.1-0.3-39.5-1.2-40.4-0.9-0.9-16.9-1.2-66-1.2-63.5 0-64.8 0-66.8 2z"/>
		<path class="s0" d="m2147 257.1c-53.4 6.2-100.3 33.7-128.1 75.4-48.9 73.2-28.8 170.6 45.6 220.7 31.5 21.2 70.9 32.1 110.5 30.5 49.3-2 90.8-19.5 123-51.7 31.4-31.4 47.2-68.9 47.2-112 0-42-15.3-79.5-44.7-109.9-20.5-21.2-42.4-35.1-69.5-44.2-26.2-8.7-56.7-11.9-84-8.8zm34.2 110c18.5 3.9 33.9 20.6 38.3 41.4 7.6 36.4-16.1 69.5-49.8 69.5-12.3 0-23.8-5.1-33.7-15-32.2-32.1-15.9-90.2 27-96 8.4-1.1 12.4-1.1 18.2 0.1z"/>
		<path class="s0" d="m1850.4 265.1c-1.9 2.1-1.9 6.1-1.9 155.9 0 149.8 0 153.8 1.9 155.9 1.9 2.1 2.2 2.1 63.8 2.1 60.5 0 61.8 0 63.8-2 2-2 2-3.3 2-155.4v-153.3l-2.1-2.7-2-2.6h-61.8c-61.5 0-61.8 0-63.7 2.1z"/>
	</g>
</svg>